<svg viewBox="0 0 900 580" xmlns="http://www.w3.org/2000/svg" role="img" width="100%">
  <title>Azure Storage Architecture — Project 4</title>
  <desc>Architecture diagram showing stlabeastus001 (LRS) and stlabgrs001 (GRS) storage accounts with containers, access methods including account keys, ad-hoc SAS, policy SAS, and lifecycle management tiers from Hot to Cool to Archive to Delete. Static website hosting shown on the $web container.</desc>

  <defs>
    <marker id="arr" viewBox="0 0 10 10" refX="9" refY="5" markerWidth="6" markerHeight="6" orient="auto">
      <path d="M1 1L9 5L1 9" fill="none" stroke="context-stroke" stroke-width="1.8" stroke-linecap="round" stroke-linejoin="round"/>
    </marker>
    <style>
      text { font-family: -apple-system, BlinkMacSystemFont, "Segoe UI", Arial, sans-serif; }
    </style>
  </defs>

  <!-- Background -->
  <rect width="900" height="580" fill="#f7f6f2"/>

  <!-- Title -->
  <text x="450" y="28" text-anchor="middle" style="font-size:15px;font-weight:600;fill:#1a1a18;">Azure Storage Architecture — Project 4</text>
  <text x="450" y="46" text-anchor="middle" style="font-size:11px;fill:#6b6b64;">Storage accounts · access control · lifecycle tiers · static website</text>

  <!-- ══════════════════════════════════════
       LEFT: stlabeastus001 (LRS)
  ══════════════════════════════════════ -->

  <!-- Outer account box -->
  <rect x="30" y="62" width="520" height="448" rx="14" fill="#E6F1FB" fill-opacity="0.5" stroke="#185FA5" stroke-width="1.5"/>
  <rect x="30" y="62" width="520" height="32" rx="14" fill="#185FA5"/>
  <rect x="30" y="80" width="520" height="14" fill="#185FA5"/>
  <text x="50" y="82" style="font-size:13px;font-weight:600;fill:#fff;">stlabeastus001</text>
  <text x="50" y="96" style="font-size:10px;font-family:monospace;fill:#aed4f5;">Standard_LRS · Hot tier · East US · TLS 1.2</text>
  <text x="536" y="82" text-anchor="end" style="font-size:9px;font-weight:600;letter-spacing:.08em;fill:#aed4f5;">PRIMARY</text>

  <!-- ── Container: uploads ── -->
  <rect x="50" y="106" width="220" height="190" rx="9" fill="#fff" fill-opacity="0.75" stroke="#0a7e6e" stroke-width="1"/>
  <text x="64" y="124" style="font-size:11px;font-weight:500;fill:#0a7e6e;">uploads</text>
  <text x="64" y="138" style="font-size:10px;font-family:monospace;fill:#0a7e6e;">Private · 5 blobs</text>

  <!-- Blob items -->
  <rect x="64" y="146" width="192" height="20" rx="4" fill="#e6f5f3" stroke="#9FE1CB" stroke-width="0.5"/>
  <text x="72" y="160" style="font-size:10px;font-family:monospace;fill:#085041;">testfile1.txt</text>
  <text x="240" y="160" text-anchor="end" style="font-size:9px;font-family:monospace;fill:#0a7e6e;">Hot</text>

  <rect x="64" y="170" width="192" height="20" rx="4" fill="#e6f5f3" stroke="#9FE1CB" stroke-width="0.5"/>
  <text x="72" y="184" style="font-size:10px;font-family:monospace;fill:#085041;">testfile2.txt</text>
  <text x="240" y="184" text-anchor="end" style="font-size:9px;font-family:monospace;fill:#0a7e6e;">Hot</text>

  <rect x="64" y="194" width="192" height="20" rx="4" fill="#e6f5f3" stroke="#9FE1CB" stroke-width="0.5"/>
  <text x="72" y="208" style="font-size:10px;font-family:monospace;fill:#085041;">testfile3.txt</text>
  <text x="240" y="208" text-anchor="end" style="font-size:9px;font-family:monospace;fill:#0a7e6e;">Hot</text>

  <rect x="64" y="218" width="192" height="20" rx="4" fill="#e6f5f3" stroke="#9FE1CB" stroke-width="0.5"/>
  <text x="72" y="232" style="font-size:10px;font-family:monospace;fill:#085041;">testfile4.json</text>
  <text x="240" y="232" text-anchor="end" style="font-size:9px;font-family:monospace;fill:#0a7e6e;">Hot</text>

  <rect x="64" y="242" width="192" height="20" rx="4" fill="#e6f5f3" stroke="#9FE1CB" stroke-width="0.5"/>
  <text x="72" y="256" style="font-size:10px;font-family:monospace;fill:#085041;">testfile5.json</text>
  <text x="240" y="256" text-anchor="end" style="font-size:9px;font-family:monospace;fill:#0a7e6e;">Hot</text>

  <!-- Soft delete note -->
  <rect x="64" y="270" width="192" height="18" rx="4" fill="#dbeafe" stroke="#93c5fd" stroke-width="0.5"/>
  <text x="160" y="282" text-anchor="middle" style="font-size:9px;fill:#1d4ed8;">Soft delete: 7 day retention</text>

  <!-- ── Container: archive ── -->
  <rect x="50" y="308" width="220" height="80" rx="9" fill="#fff" fill-opacity="0.75" stroke="#534AB7" stroke-width="1"/>
  <text x="64" y="326" style="font-size:11px;font-weight:500;fill:#534AB7;">archive</text>
  <text x="64" y="340" style="font-size:10px;font-family:monospace;fill:#534AB7;">Private · lifecycle demo</text>
  <rect x="64" y="348" width="192" height="20" rx="4" fill="#EEEDFE" stroke="#AFA9EC" stroke-width="0.5"/>
  <text x="72" y="362" style="font-size:10px;font-family:monospace;fill:#3C3489;">archive-testfile1.txt</text>
  <text x="250" y="362" text-anchor="end" style="font-size:9px;font-family:monospace;fill:#534AB7;">Hot</text>

  <!-- ── Container: $web ── -->
  <rect x="50" y="400" width="220" height="98" rx="9" fill="#fff" fill-opacity="0.75" stroke="#d83b01" stroke-width="1"/>
  <text x="64" y="418" style="font-size:11px;font-weight:500;fill:#d83b01;">$web</text>
  <text x="64" y="432" style="font-size:10px;font-family:monospace;fill:#d83b01;">Static website container</text>
  <rect x="64" y="440" width="192" height="20" rx="4" fill="#fef3ee" stroke="#f5c4b3" stroke-width="0.5"/>
  <text x="72" y="454" style="font-size:10px;font-family:monospace;fill:#712B13;">index.html</text>
  <rect x="64" y="464" width="192" height="20" rx="4" fill="#fef3ee" stroke="#f5c4b3" stroke-width="0.5"/>
  <text x="72" y="478" style="font-size:10px;font-family:monospace;fill:#712B13;">404.html</text>

  <!-- ══════════════════════════════════════
       RIGHT PANEL: Access methods + lifecycle
  ══════════════════════════════════════ -->

  <!-- Access methods panel -->
  <rect x="290" y="106" width="240" height="280" rx="9" fill="#fff" fill-opacity="0.75" stroke="#185FA5" stroke-width="1"/>
  <text x="304" y="124" style="font-size:11px;font-weight:500;fill:#185FA5;">Access methods</text>

  <!-- Account key -->
  <rect x="304" y="132" width="212" height="52" rx="6" fill="#E6F1FB" stroke="#378ADD" stroke-width="0.5"/>
  <text x="316" y="148" style="font-size:10px;font-weight:500;fill:#185FA5;">Account keys (Key 1 + Key 2)</text>
  <text x="316" y="161" style="font-size:9px;font-family:monospace;fill:#378ADD;">Full admin access · rotate independently</text>
  <text x="316" y="173" style="font-size:9px;font-family:monospace;fill:#378ADD;">Zero-downtime rotation pattern</text>

  <!-- Ad-hoc SAS -->
  <rect x="304" y="192" width="212" height="52" rx="6" fill="#fff7ed" stroke="#f59e0b" stroke-width="0.5"/>
  <text x="316" y="208" style="font-size:10px;font-weight:500;fill:#92400e;">Ad-hoc SAS token</text>
  <text x="316" y="221" style="font-size:9px;font-family:monospace;fill:#92400e;">Read-only · 2hr expiry · HTTPS only</text>
  <text x="316" y="233" style="font-size:9px;font-family:monospace;fill:#b45309;">Cannot be revoked before expiry</text>

  <!-- Stored policy SAS -->
  <rect x="304" y="252" width="212" height="52" rx="6" fill="#f0fdf4" stroke="#86efac" stroke-width="0.5"/>
  <text x="316" y="268" style="font-size:10px;font-weight:500;fill:#166534;">Stored access policy SAS</text>
  <text x="316" y="281" style="font-size:9px;font-family:monospace;fill:#166534;">read-policy-30d · Read+List</text>
  <text x="316" y="293" style="font-size:9px;font-family:monospace;fill:#166534;">Revoke policy → all tokens invalid</text>

  <!-- Managed identity note -->
  <rect x="304" y="312" width="212" height="34" rx="6" fill="#f5f4ef" stroke="#d4d3cc" stroke-width="0.5"/>
  <text x="316" y="327" style="font-size:9px;font-family:monospace;fill:#6b6b64;">Production: use Managed Identity</text>
  <text x="316" y="339" style="font-size:9px;font-family:monospace;fill:#6b6b64;">(no keys/tokens stored in code)</text>

  <!-- Lifecycle policy panel -->
  <rect x="290" y="398" width="240" height="112" rx="9" fill="#fff" fill-opacity="0.75" stroke="#534AB7" stroke-width="1"/>
  <text x="304" y="416" style="font-size:11px;font-weight:500;fill:#534AB7;">Lifecycle management policy</text>
  <text x="304" y="430" style="font-size:9px;font-family:monospace;fill:#6b6b64;">uploads/ prefix · runs daily</text>

  <!-- Tier progression boxes -->
  <rect x="304" y="438" width="46" height="32" rx="5" fill="#E6F1FB" stroke="#185FA5" stroke-width="0.75"/>
  <text x="327" y="451" text-anchor="middle" style="font-size:9px;font-weight:500;fill:#185FA5;">Hot</text>
  <text x="327" y="463" text-anchor="middle" style="font-size:8px;font-family:monospace;fill:#378ADD;">0d</text>

  <line x1="350" y1="454" x2="358" y2="454" stroke="#888780" stroke-width="1" marker-end="url(#arr)"/>

  <rect x="360" y="438" width="46" height="32" rx="5" fill="#dbeafe" stroke="#93c5fd" stroke-width="0.75"/>
  <text x="383" y="451" text-anchor="middle" style="font-size:9px;font-weight:500;fill:#1d4ed8;">Cool</text>
  <text x="383" y="463" text-anchor="middle" style="font-size:8px;font-family:monospace;fill:#1d4ed8;">30d</text>

  <line x1="406" y1="454" x2="414" y2="454" stroke="#888780" stroke-width="1" marker-end="url(#arr)"/>

  <rect x="416" y="438" width="52" height="32" rx="5" fill="#EEEDFE" stroke="#AFA9EC" stroke-width="0.75"/>
  <text x="442" y="451" text-anchor="middle" style="font-size:9px;font-weight:500;fill:#3C3489;">Archive</text>
  <text x="442" y="463" text-anchor="middle" style="font-size:8px;font-family:monospace;fill:#534AB7;">90d</text>

  <line x1="468" y1="454" x2="476" y2="454" stroke="#888780" stroke-width="1" marker-end="url(#arr)"/>

  <rect x="478" y="438" width="46" height="32" rx="5" fill="#fee2e2" stroke="#fca5a5" stroke-width="0.75"/>
  <text x="501" y="451" text-anchor="middle" style="font-size:9px;font-weight:500;fill:#991b1b;">Delete</text>
  <text x="501" y="463" text-anchor="middle" style="font-size:8px;font-family:monospace;fill:#c0392b;">365d</text>

  <text x="410" y="500" text-anchor="middle" style="font-size:9px;fill:#6b6b64;">archive/ prefix: 7d→Cool · 30d→Archive · 180d→Delete</text>

  <!-- ══════════════════════════════════════
       RIGHT: stlabgrs001 (GRS)
  ══════════════════════════════════════ -->

  <rect x="566" y="62" width="306" height="170" rx="14" fill="#fef3ee" fill-opacity="0.6" stroke="#d83b01" stroke-width="1.5"/>
  <rect x="566" y="62" width="306" height="32" rx="14" fill="#d83b01"/>
  <rect x="566" y="80" width="306" height="14" fill="#d83b01"/>
  <text x="586" y="82" style="font-size:13px;font-weight:600;fill:#fff;">stlabgrs001</text>
  <text x="586" y="96" style="font-size:10px;font-family:monospace;fill:#f5c4b3;">Standard_GRS · Cool tier · East US</text>
  <text x="858" y="82" text-anchor="end" style="font-size:9px;font-weight:600;letter-spacing:.08em;fill:#f5c4b3;">GRS DEMO</text>

  <!-- Primary region -->
  <rect x="582" y="104" width="126" height="118" rx="8" fill="#fff" fill-opacity="0.8" stroke="#d83b01" stroke-width="0.75"/>
  <text x="645" y="122" text-anchor="middle" style="font-size:10px;font-weight:500;fill:#d83b01;">Primary</text>
  <text x="645" y="136" text-anchor="middle" style="font-size:9px;font-family:monospace;fill:#993C1D;">East US</text>
  <rect x="594" y="144" width="102" height="16" rx="3" fill="#FAECE7" stroke="#F5C4B3" stroke-width="0.5"/>
  <text x="645" y="155" text-anchor="middle" style="font-size:9px;fill:#712B13;">Copy 1 (local)</text>
  <rect x="594" y="164" width="102" height="16" rx="3" fill="#FAECE7" stroke="#F5C4B3" stroke-width="0.5"/>
  <text x="645" y="175" text-anchor="middle" style="font-size:9px;fill:#712B13;">Copy 2 (local)</text>
  <rect x="594" y="184" width="102" height="16" rx="3" fill="#FAECE7" stroke="#F5C4B3" stroke-width="0.5"/>
  <text x="645" y="195" text-anchor="middle" style="font-size:9px;fill:#712B13;">Copy 3 (local)</text>

  <!-- Replication arrow -->
  <line x1="708" y1="162" x2="722" y2="162" stroke="#d83b01" stroke-width="1.5" stroke-dasharray="4 2" marker-end="url(#arr)"/>
  <text x="715" y="156" text-anchor="middle" style="font-size:8px;fill:#d83b01;">async</text>

  <!-- Secondary region -->
  <rect x="724" y="104" width="130" height="118" rx="8" fill="#fff" fill-opacity="0.8" stroke="#d83b01" stroke-width="0.75" stroke-dasharray="4 2"/>
  <text x="789" y="122" text-anchor="middle" style="font-size:10px;font-weight:500;fill:#993C1D;">Secondary</text>
  <text x="789" y="136" text-anchor="middle" style="font-size:9px;font-family:monospace;fill:#993C1D;">West US 2</text>
  <rect x="736" y="144" width="106" height="16" rx="3" fill="#FAECE7" stroke="#F5C4B3" stroke-width="0.5"/>
  <text x="789" y="155" text-anchor="middle" style="font-size:9px;fill:#993C1D;">Copy 4 (remote)</text>
  <rect x="736" y="164" width="106" height="16" rx="3" fill="#FAECE7" stroke="#F5C4B3" stroke-width="0.5"/>
  <text x="789" y="175" text-anchor="middle" style="font-size:9px;fill:#993C1D;">Copy 5 (remote)</text>
  <rect x="736" y="184" width="106" height="16" rx="3" fill="#FAECE7" stroke="#F5C4B3" stroke-width="0.5"/>
  <text x="789" y="195" text-anchor="middle" style="font-size:9px;fill:#993C1D;">Copy 6 (remote)</text>

  <!-- Delete note -->
  <rect x="582" y="228" width="272" height="22" rx="6" fill="#fee2e2" stroke="#fca5a5" stroke-width="0.5"/>
  <text x="718" y="243" text-anchor="middle" style="font-size:10px;font-weight:500;fill:#991b1b;">Delete after screenshots — costs ~2x LRS</text>

  <!-- ══════════════════════════════════════
       STATIC WEBSITE endpoint
  ══════════════════════════════════════ -->
  <rect x="566" y="252" width="306" height="100" rx="14" fill="#fef3ee" fill-opacity="0.6" stroke="#d83b01" stroke-width="1"/>
  <text x="586" y="272" style="font-size:11px;font-weight:500;fill:#d83b01;">Static website endpoint</text>
  <text x="586" y="288" style="font-size:10px;font-family:monospace;fill:#993C1D;">https://stlabeastus001.z13.web.core.windows.net/</text>
  <rect x="586" y="298" width="272" height="20" rx="5" fill="#fff" fill-opacity="0.8" stroke="#f5c4b3" stroke-width="0.5"/>
  <text x="722" y="312" text-anchor="middle" style="font-size:10px;fill:#712B13;">Public · No compute · ~$0.002/GB/month</text>
  <text x="586" y="340" style="font-size:9px;font-family:monospace;fill:#6b6b64;">Served from $web container · index.html + 404.html</text>

  <!-- Arrow: $web container → static endpoint -->
  <line x1="270" y1="449" x2="564" y2="300" stroke="#d83b01" stroke-width="1" stroke-dasharray="4 2" marker-end="url(#arr)" opacity="0.6"/>

  <!-- ══════════════════════════════════════
       LRS redundancy visual
  ══════════════════════════════════════ -->
  <rect x="566" y="364" width="306" height="146" rx="14" fill="#E6F1FB" fill-opacity="0.5" stroke="#185FA5" stroke-width="1"/>
  <text x="586" y="384" style="font-size:11px;font-weight:500;fill:#185FA5;">LRS redundancy — stlabeastus001</text>
  <text x="586" y="399" style="font-size:9px;font-family:monospace;fill:#378ADD;">3 synchronous copies within one datacenter</text>

  <rect x="586" y="408" width="80" height="50" rx="6" fill="#fff" fill-opacity="0.8" stroke="#378ADD" stroke-width="0.75"/>
  <text x="626" y="428" text-anchor="middle" style="font-size:9px;fill:#185FA5;">Rack 1</text>
  <text x="626" y="442" text-anchor="middle" style="font-size:9px;font-family:monospace;fill:#378ADD;">Copy 1</text>

  <line x1="666" y1="433" x2="678" y2="433" stroke="#378ADD" stroke-width="1" marker-end="url(#arr)"/>

  <rect x="680" y="408" width="80" height="50" rx="6" fill="#fff" fill-opacity="0.8" stroke="#378ADD" stroke-width="0.75"/>
  <text x="720" y="428" text-anchor="middle" style="font-size:9px;fill:#185FA5;">Rack 2</text>
  <text x="720" y="442" text-anchor="middle" style="font-size:9px;font-family:monospace;fill:#378ADD;">Copy 2</text>

  <line x1="760" y1="433" x2="772" y2="433" stroke="#378ADD" stroke-width="1" marker-end="url(#arr)"/>

  <rect x="774" y="408" width="80" height="50" rx="6" fill="#fff" fill-opacity="0.8" stroke="#378ADD" stroke-width="0.75"/>
  <text x="814" y="428" text-anchor="middle" style="font-size:9px;fill:#185FA5;">Rack 3</text>
  <text x="814" y="442" text-anchor="middle" style="font-size:9px;font-family:monospace;fill:#378ADD;">Copy 3</text>

  <text x="719" y="478" text-anchor="middle" style="font-size:9px;fill:#6b6b64;">11 nines durability (99.999999999%)</text>
  <text x="719" y="492" text-anchor="middle" style="font-size:9px;fill:#6b6b64;">Survives: drive failure, rack failure · Not: datacenter loss</text>
  <text x="719" y="506" text-anchor="middle" style="font-size:9px;fill:#6b6b64;">GRS adds 3 more copies in West US 2 → 16 nines</text>

  <!-- ══════════════════════════════════════
       LEGEND
  ══════════════════════════════════════ -->
  <rect x="30" y="522" width="842" height="46" rx="8" fill="#ffffff" stroke="#d4d3cc" stroke-width="0.75"/>
  <rect x="46" y="535" width="12" height="10" rx="2" fill="#E6F1FB" stroke="#185FA5" stroke-width="1"/>
  <text x="64" y="544" style="font-size:11px;fill:#3d3d38;">LRS account</text>
  <rect x="154" y="535" width="12" height="10" rx="2" fill="#fef3ee" stroke="#d83b01" stroke-width="1"/>
  <text x="172" y="544" style="font-size:11px;fill:#3d3d38;">GRS account</text>
  <rect x="262" y="535" width="12" height="10" rx="2" fill="#e6f5f3" stroke="#0a7e6e" stroke-width="1"/>
  <text x="280" y="544" style="font-size:11px;fill:#3d3d38;">Blob container</text>
  <rect x="376" y="535" width="12" height="10" rx="2" fill="#fff7ed" stroke="#f59e0b" stroke-width="1"/>
  <text x="394" y="544" style="font-size:11px;fill:#3d3d38;">Ad-hoc SAS</text>
  <rect x="476" y="535" width="12" height="10" rx="2" fill="#f0fdf4" stroke="#86efac" stroke-width="1"/>
  <text x="494" y="544" style="font-size:11px;fill:#3d3d38;">Policy SAS</text>
  <rect x="564" y="535" width="12" height="10" rx="2" fill="#EEEDFE" stroke="#534AB7" stroke-width="1"/>
  <text x="582" y="544" style="font-size:11px;fill:#3d3d38;">Lifecycle / archive</text>

  <text x="46" y="560" style="font-size:11px;fill:#6b6b64;">Lifecycle tiers:</text>
  <rect x="130" y="551" width="34" height="14" rx="3" fill="#E6F1FB" stroke="#185FA5" stroke-width="0.5"/>
  <text x="147" y="562" text-anchor="middle" style="font-size:9px;fill:#185FA5;">Hot 0d</text>
  <line x1="164" y1="558" x2="174" y2="558" stroke="#888780" stroke-width="1" marker-end="url(#arr)"/>
  <rect x="175" y="551" width="40" height="14" rx="3" fill="#dbeafe" stroke="#93c5fd" stroke-width="0.5"/>
  <text x="195" y="562" text-anchor="middle" style="font-size:9px;fill:#1d4ed8;">Cool 30d</text>
  <line x1="215" y1="558" x2="225" y2="558" stroke="#888780" stroke-width="1" marker-end="url(#arr)"/>
  <rect x="226" y="551" width="52" height="14" rx="3" fill="#EEEDFE" stroke="#AFA9EC" stroke-width="0.5"/>
  <text x="252" y="562" text-anchor="middle" style="font-size:9px;fill:#3C3489;">Archive 90d</text>
  <line x1="278" y1="558" x2="288" y2="558" stroke="#888780" stroke-width="1" marker-end="url(#arr)"/>
  <rect x="289" y="551" width="50" height="14" rx="3" fill="#fee2e2" stroke="#fca5a5" stroke-width="0.5"/>
  <text x="314" y="562" text-anchor="middle" style="font-size:9px;fill:#991b1b;">Delete 365d</text>

</svg>
