<svg width="100%" viewBox="0 0 680 760" role="img" xmlns="http://www.w3.org/2000/svg">
  <title>AZ-104 Phase 4 Project 12 — Container Registry and Container Apps</title>
  <desc>Architecture showing acrdevwus301 feeding Container Apps environment cae-dev-wus3-01 running ca-dev-wus3-01 with traffic splitting between v1 and v2 revisions.</desc>

  <defs>
    <marker id="arr" viewBox="0 0 10 10" refX="8" refY="5" markerWidth="6" markerHeight="6" orient="auto-start-reverse">
      <path d="M2 1L8 5L2 9" fill="none" stroke="context-stroke" stroke-width="1.5" stroke-linecap="round" stroke-linejoin="round"/>
    </marker>
    <style>
      text { font-family: 'IBM Plex Mono', 'Consolas', monospace; }
      .sans { font-family: 'Syne', 'Segoe UI', system-ui, sans-serif; }
      .cap  { font-size: 10px; fill: #64748b; letter-spacing: .08em; }
      .nm   { font-size: 12px; font-weight: 500; }
      .sub  { font-size: 10px; }
      .row  { font-size: 10px; }
      .conn-blue   { stroke: #3b82f6; stroke-width: 1.5; fill: none; }
      .conn-teal   { stroke: #14b8a6; stroke-width: 1.5; fill: none; }
      .conn-purple { stroke: #a855f7; stroke-width: 1.5; fill: none; stroke-dasharray: 5 3; }
      .conn-amber  { stroke: #f59e0b; stroke-width: 1;   fill: none; stroke-dasharray: 3 2; }
      .conn-gray   { stroke: #475569; stroke-width: 0.5; fill: none; }
    </style>
  </defs>

  <!-- page bg -->
  <rect width="680" height="760" fill="#0f1117"/>

  <!-- header stripe -->
  <rect x="0" y="0" width="680" height="3" fill="#a855f7"/>

  <!-- header -->
  <rect x="0" y="3" width="680" height="44" fill="#161b27"/>
  <rect x="0" y="47" width="680" height="1" fill="#2a3347"/>
  <text x="20" y="28" class="sans nm" fill="#e2e8f0" font-size="13" font-weight="600">AZ-104 · Phase 4 · Project 12</text>
  <text x="20" y="42" class="sub" fill="#64748b">Container Registry + Container Apps · West US 3</text>
  <rect x="530" y="12" width="130" height="22" rx="11" fill="#3b0764" stroke="#a855f7" stroke-width="0.5"/>
  <text x="595" y="27" text-anchor="middle" class="sub" fill="#d8b4fe">phase-4 · project-12</text>

  <!-- ── VNet boundary ── -->
  <rect x="16" y="60" width="648" height="670" rx="12" fill="#161b27" stroke="#1d4ed8" stroke-width="0.5" stroke-dasharray="6 4"/>
  <text x="30" y="79" class="cap sans" fill="#93c5fd" font-size="10">vnet-az104-dev-wus3-01  ·  10.0.0.0/16</text>

  <!-- ── LEFT COLUMN ── -->

  <!-- ACR card -->
  <rect x="28" y="88" width="188" height="230" rx="10" fill="#1d2435" stroke="#2a3347" stroke-width="0.5"/>
  <rect x="28" y="88" width="188" height="3" rx="2" fill="#ef4444"/>
  <text x="122" y="107" text-anchor="middle" class="sans nm" fill="#e2e8f0" font-size="12" font-weight="600">Container Registry</text>
  <text x="122" y="121" text-anchor="middle" class="sub" fill="#64748b">acrdevwus301</text>
  <line x1="28" y1="128" x2="216" y2="128" stroke="#2a3347" stroke-width="0.5"/>

  <rect x="38" y="135" width="168" height="18" rx="4" fill="#450a0a" stroke="#ef4444" stroke-width="0.5"/>
  <text x="122" y="148" text-anchor="middle" class="row" fill="#fca5a5">SKU: Basic · admin: disabled</text>

  <text x="38" y="172" class="cap" fill="#475569">REPOSITORY</text>
  <rect x="38" y="178" width="168" height="18" rx="4" fill="#242c40" stroke="#364259" stroke-width="0.5"/>
  <text x="122" y="191" text-anchor="middle" class="row" fill="#93c5fd">hello-project12:v1</text>
  <rect x="38" y="200" width="168" height="18" rx="4" fill="#242c40" stroke="#364259" stroke-width="0.5"/>
  <text x="122" y="213" text-anchor="middle" class="row" fill="#fcd34d">hello-project12:v2</text>

  <text x="38" y="234" class="cap" fill="#475569">BUILD METHOD</text>
  <rect x="38" y="240" width="168" height="16" rx="4" fill="#134e4a" stroke="#14b8a6" stroke-width="0.5"/>
  <text x="122" y="252" text-anchor="middle" class="row" fill="#5eead4">v1: docker build + push</text>
  <rect x="38" y="260" width="168" height="16" rx="4" fill="#134e4a" stroke="#14b8a6" stroke-width="0.5"/>
  <text x="122" y="272" text-anchor="middle" class="row" fill="#5eead4">v2: az acr build (tasks)</text>
  <rect x="38" y="280" width="168" height="28" rx="4" fill="#3b0764" stroke="#a855f7" stroke-width="0.5"/>
  <text x="122" y="292" text-anchor="middle" class="row" fill="#d8b4fe">Role: AcrPull</text>
  <text x="122" y="304" text-anchor="middle" class="row" fill="#d8b4fe">scope: registry only</text>

  <!-- Key Vault card -->
  <rect x="28" y="332" width="188" height="100" rx="10" fill="#1d2435" stroke="#2a3347" stroke-width="0.5"/>
  <rect x="28" y="332" width="188" height="3" rx="2" fill="#f59e0b"/>
  <text x="122" y="351" text-anchor="middle" class="sans nm" fill="#e2e8f0" font-size="12" font-weight="600">Key Vault</text>
  <text x="122" y="365" text-anchor="middle" class="sub" fill="#64748b">kv-az104-dev-wus3-01</text>
  <line x1="28" y1="372" x2="216" y2="372" stroke="#2a3347" stroke-width="0.5"/>
  <rect x="38" y="378" width="168" height="16" rx="4" fill="#451a03" stroke="#f59e0b" stroke-width="0.5"/>
  <text x="122" y="390" text-anchor="middle" class="row" fill="#fcd34d">vm-admin-password</text>
  <rect x="38" y="398" width="168" height="16" rx="4" fill="#451a03" stroke="#f59e0b" stroke-width="0.5"/>
  <text x="122" y="410" text-anchor="middle" class="row" fill="#fcd34d">vm-ssh-key · deploy only</text>

  <!-- Log Analytics card -->
  <rect x="28" y="446" width="188" height="80" rx="10" fill="#1d2435" stroke="#2a3347" stroke-width="0.5"/>
  <rect x="28" y="446" width="188" height="3" rx="2" fill="#3b82f6"/>
  <text x="122" y="465" text-anchor="middle" class="sans nm" fill="#e2e8f0" font-size="12" font-weight="600">Log Analytics</text>
  <text x="122" y="479" text-anchor="middle" class="sub" fill="#64748b">law-az104-dev-wus03-01</text>
  <line x1="28" y1="486" x2="216" y2="486" stroke="#2a3347" stroke-width="0.5"/>
  <rect x="38" y="492" width="168" height="16" rx="4" fill="#1e3a5f" stroke="#3b82f6" stroke-width="0.5"/>
  <text x="122" y="504" text-anchor="middle" class="row" fill="#93c5fd">CAE logs · listKeys auth</text>

  <!-- ── CAE boundary ── -->
  <rect x="228" y="88" width="424" height="626" rx="12" fill="#161b27" stroke="#a855f7" stroke-width="0.5" stroke-dasharray="5 3"/>
  <rect x="228" y="88" width="424" height="3" rx="2" fill="#a855f7"/>
  <text x="248" y="107" class="sans nm" fill="#d8b4fe" font-size="12" font-weight="600">cae-dev-wus3-01</text>
  <text x="248" y="120" class="sub" fill="#64748b">Container Apps Environment · snet-capp-dev-wus3-01 · 10.0.8.0/23 · internal</text>

  <!-- Container App card -->
  <rect x="240" y="130" width="400" height="180" rx="10" fill="#1d2435" stroke="#2a3347" stroke-width="0.5"/>
  <rect x="240" y="130" width="400" height="3" rx="2" fill="#a855f7"/>
  <text x="440" y="149" text-anchor="middle" class="sans nm" fill="#e2e8f0" font-size="12" font-weight="600">ca-dev-wus3-01</text>
  <text x="440" y="163" text-anchor="middle" class="sub" fill="#64748b">Container App · port 80 · internal · activeRevisionsMode: Multiple</text>
  <line x1="240" y1="170" x2="640" y2="170" stroke="#2a3347" stroke-width="0.5"/>

  <!-- left half: identity + config -->
  <text x="252" y="186" class="cap" fill="#475569">CONFIGURATION</text>
  <rect x="252" y="192" width="178" height="16" rx="4" fill="#3b0764" stroke="#a855f7" stroke-width="0.5"/>
  <text x="341" y="204" text-anchor="middle" class="row" fill="#d8b4fe">identity: SystemAssigned</text>
  <rect x="252" y="212" width="178" height="16" rx="4" fill="#3b0764" stroke="#a855f7" stroke-width="0.5"/>
  <text x="341" y="224" text-anchor="middle" class="row" fill="#d8b4fe">ingress: internal only</text>
  <rect x="252" y="232" width="178" height="16" rx="4" fill="#3b0764" stroke="#a855f7" stroke-width="0.5"/>
  <text x="341" y="244" text-anchor="middle" class="row" fill="#d8b4fe">image: hello-project12:v2</text>
  <rect x="252" y="252" width="178" height="16" rx="4" fill="#3b0764" stroke="#a855f7" stroke-width="0.5"/>
  <text x="341" y="264" text-anchor="middle" class="row" fill="#d8b4fe">cpu: 0.5 · memory: 1Gi</text>
  <rect x="252" y="272" width="178" height="28" rx="4" fill="#3b0764" stroke="#a855f7" stroke-width="0.5"/>
  <text x="341" y="284" text-anchor="middle" class="row" fill="#d8b4fe">registries: identity=system</text>
  <text x="341" y="296" text-anchor="middle" class="row" fill="#d8b4fe">no credentials stored</text>

  <!-- right half: scale -->
  <text x="442" y="186" class="cap" fill="#475569">SCALE CONFIG</text>
  <rect x="442" y="192" width="186" height="16" rx="4" fill="#14532d" stroke="#22c55e" stroke-width="0.5"/>
  <text x="535" y="204" text-anchor="middle" class="row" fill="#86efac">minReplicas: 0 (scale to zero)</text>
  <rect x="442" y="212" width="186" height="16" rx="4" fill="#14532d" stroke="#22c55e" stroke-width="0.5"/>
  <text x="535" y="224" text-anchor="middle" class="row" fill="#86efac">maxReplicas: 3</text>
  <rect x="442" y="232" width="186" height="16" rx="4" fill="#14532d" stroke="#22c55e" stroke-width="0.5"/>
  <text x="535" y="244" text-anchor="middle" class="row" fill="#86efac">scale: HTTP traffic driven</text>
  <rect x="442" y="252" width="186" height="16" rx="4" fill="#14532d" stroke="#22c55e" stroke-width="0.5"/>
  <text x="535" y="264" text-anchor="middle" class="row" fill="#86efac">cost: $0.00 when idle</text>
  <rect x="442" y="272" width="186" height="28" rx="4" fill="#14532d" stroke="#22c55e" stroke-width="0.5"/>
  <text x="535" y="284" text-anchor="middle" class="row" fill="#86efac">pay per request only</text>
  <text x="535" y="296" text-anchor="middle" class="row" fill="#86efac">key cost advantage vs App Svc</text>

  <!-- Traffic split header -->
  <text x="440" y="336" text-anchor="middle" class="sans nm" fill="#e2e8f0" font-size="12" font-weight="600">Traffic Split · Canary Deployment</text>
  <text x="440" y="350" text-anchor="middle" class="sub" fill="#64748b">80% stable  ·  20% canary  ·  zero-downtime revision swap</text>

  <!-- v1 revision card -->
  <rect x="240" y="360" width="192" height="148" rx="10" fill="#1d2435" stroke="#2a3347" stroke-width="0.5"/>
  <rect x="240" y="360" width="192" height="3" rx="2" fill="#94a3b8"/>
  <text x="336" y="379" text-anchor="middle" class="sans nm" fill="#e2e8f0" font-size="12" font-weight="600">Revision v1</text>
  <text x="336" y="393" text-anchor="middle" class="sub" fill="#64748b">stable · 80% weight</text>
  <line x1="240" y1="400" x2="432" y2="400" stroke="#2a3347" stroke-width="0.5"/>
  <rect x="252" y="407" width="168" height="16" rx="4" fill="#242c40" stroke="#364259" stroke-width="0.5"/>
  <text x="336" y="419" text-anchor="middle" class="row" fill="#94a3b8">ca-dev-wus3-01--jvv5at8</text>
  <rect x="252" y="427" width="168" height="16" rx="4" fill="#242c40" stroke="#364259" stroke-width="0.5"/>
  <text x="336" y="439" text-anchor="middle" class="row" fill="#93c5fd">hello-project12:v1</text>
  <rect x="252" y="447" width="168" height="16" rx="4" fill="#242c40" stroke="#364259" stroke-width="0.5"/>
  <text x="336" y="459" text-anchor="middle" class="row" fill="#94a3b8">nginx:alpine · port 80</text>
  <!-- traffic bar v1 -->
  <rect x="252" y="468" width="168" height="30" rx="4" fill="#1e3a5f" stroke="#3b82f6" stroke-width="0.5"/>
  <rect x="254" y="470" width="134" height="26" rx="3" fill="#1d4ed8"/>
  <text x="336" y="488" text-anchor="middle" class="row" fill="#e2e8f0" font-weight="500">80%</text>

  <!-- v2 revision card -->
  <rect x="448" y="360" width="192" height="148" rx="10" fill="#1d2435" stroke="#2a3347" stroke-width="0.5"/>
  <rect x="448" y="360" width="192" height="3" rx="2" fill="#f59e0b"/>
  <text x="544" y="379" text-anchor="middle" class="sans nm" fill="#e2e8f0" font-size="12" font-weight="600">Revision v2</text>
  <text x="544" y="393" text-anchor="middle" class="sub" fill="#64748b">canary · 20% weight</text>
  <line x1="448" y1="400" x2="640" y2="400" stroke="#2a3347" stroke-width="0.5"/>
  <rect x="460" y="407" width="168" height="16" rx="4" fill="#242c40" stroke="#364259" stroke-width="0.5"/>
  <text x="544" y="419" text-anchor="middle" class="row" fill="#fcd34d">ca-dev-wus3-01--[latest]</text>
  <rect x="460" y="427" width="168" height="16" rx="4" fill="#242c40" stroke="#364259" stroke-width="0.5"/>
  <text x="544" y="439" text-anchor="middle" class="row" fill="#fcd34d">hello-project12:v2</text>
  <rect x="460" y="447" width="168" height="16" rx="4" fill="#242c40" stroke="#364259" stroke-width="0.5"/>
  <text x="544" y="459" text-anchor="middle" class="row" fill="#94a3b8">built: az acr build</text>
  <!-- traffic bar v2 -->
  <rect x="460" y="468" width="168" height="30" rx="4" fill="#451a03" stroke="#f59e0b" stroke-width="0.5"/>
  <rect x="462" y="470" width="33" height="26" rx="3" fill="#b45309"/>
  <text x="544" y="488" text-anchor="middle" class="row" fill="#e2e8f0" font-weight="500">20%</text>

  <!-- FQDN -->
  <rect x="240" y="524" width="400" height="40" rx="8" fill="#1e3a5f" stroke="#3b82f6" stroke-width="0.5"/>
  <text x="440" y="540" text-anchor="middle" class="cap sans" fill="#93c5fd" font-size="10">INTERNAL FQDN</text>
  <text x="440" y="556" text-anchor="middle" class="row" fill="#93c5fd">ca-dev-wus3-01.internal.calmpebble-00f9375b.westus3.azurecontainerapps.io</text>

  <!-- Bicep modules -->
  <rect x="240" y="576" width="400" height="52" rx="8" fill="#1d2435" stroke="#2a3347" stroke-width="0.5"/>
  <text x="252" y="592" class="cap" fill="#475569">BICEP MODULES</text>
  <rect x="252" y="598" width="78" height="20" rx="4" fill="#242c40" stroke="#364259" stroke-width="0.5"/>
  <text x="291" y="612" text-anchor="middle" class="row" fill="#94a3b8">acr.bicep</text>
  <rect x="338" y="598" width="78" height="20" rx="4" fill="#3b0764" stroke="#a855f7" stroke-width="0.5"/>
  <text x="377" y="612" text-anchor="middle" class="row" fill="#d8b4fe">cae.bicep</text>
  <rect x="424" y="598" width="78" height="20" rx="4" fill="#3b0764" stroke="#a855f7" stroke-width="0.5"/>
  <text x="463" y="612" text-anchor="middle" class="row" fill="#d8b4fe">ca.bicep</text>
  <rect x="510" y="598" width="118" height="20" rx="4" fill="#242c40" stroke="#364259" stroke-width="0.5"/>
  <text x="569" y="612" text-anchor="middle" class="row" fill="#94a3b8">main.bicep + params</text>

  <!-- Key takeaways -->
  <rect x="240" y="640" width="400" height="60" rx="8" fill="#14532d" stroke="#22c55e" stroke-width="0.5"/>
  <text x="252" y="656" class="cap" fill="#22c55e">KEY TAKEAWAYS</text>
  <text x="252" y="671" class="row" fill="#86efac">· No passwords anywhere · managed identity end-to-end</text>
  <text x="252" y="686" class="row" fill="#86efac">· No public IPs · VNet-injected · scale to zero = $0 idle cost</text>
  <text x="252" y="700" class="row" fill="#86efac">· Canary deploy: 80/20 traffic split · zero downtime revisions</text>

  <!-- ── CONNECTORS ── -->
  <!-- ACR → CA: AcrPull -->
  <line x1="216" y1="200" x2="240" y2="200" class="conn-blue" marker-end="url(#arr)"/>
  <text x="208" y="195" text-anchor="end" class="cap" fill="#3b82f6">AcrPull</text>

  <!-- KV → deploy (dashed amber) -->
  <line x1="216" y1="374" x2="240" y2="240" class="conn-amber" marker-end="url(#arr)"/>
  <text x="208" y="315" text-anchor="end" class="cap" fill="#f59e0b">secrets</text>

  <!-- LAW → CAE (dashed blue) -->
  <line x1="216" y1="490" x2="240" y2="490" class="conn-blue" stroke-dasharray="3 2" marker-end="url(#arr)"/>
  <text x="208" y="485" text-anchor="end" class="cap" fill="#3b82f6">logs</text>

  <!-- CA → v1 -->
  <line x1="336" y1="310" x2="336" y2="360" class="conn-teal" marker-end="url(#arr)"/>
  <text x="310" y="340" class="cap" fill="#14b8a6">80%</text>

  <!-- CA → v2 -->
  <line x1="544" y1="310" x2="544" y2="360" class="conn-teal" marker-end="url(#arr)"/>
  <text x="548" y="340" class="cap" fill="#14b8a6">20%</text>

  <!-- ── FOOTER ── -->
  <rect x="0" y="725" width="680" height="35" fill="#161b27"/>
  <rect x="0" y="725" width="680" height="1" fill="#2a3347"/>
  <text x="340" y="747" text-anchor="middle" class="cap sans" fill="#475569" font-size="10">ostebovik · AZ-104 Phase 4 · Project 12 · Container Registry + Container Apps · westus3</text>
</svg>
